<svg xmlns="http://www.w3.org/2000/svg" xmlns:xlink="http://www.w3.org/1999/xlink" viewBox="0 0 556 580"><defs><style>.cls-1{isolation:isolate;}.cls-2{fill:url(#linear-gradient);}.cls-3{fill:url(#linear-gradient-2);}.cls-4{fill:url(#linear-gradient-3);}.cls-5{fill:url(#linear-gradient-4);}.cls-6{opacity:0.32;fill:url(#linear-gradient-5);}.cls-7{opacity:0.14;mix-blend-mode:multiply;}.cls-8{fill:url(#linear-gradient-6);}.cls-9{fill:url(#linear-gradient-7);}.cls-10,.cls-11,.cls-12{opacity:0.24;}.cls-10{fill:url(#linear-gradient-8);}.cls-11{fill:url(#linear-gradient-9);}.cls-12{fill:url(#linear-gradient-10);}.cls-13,.cls-14{opacity:0.47;}.cls-13{fill:url(#linear-gradient-11);}.cls-14{fill:url(#linear-gradient-12);}.cls-15,.cls-16{opacity:0.48;}.cls-15{fill:url(#linear-gradient-13);}.cls-16{fill:url(#linear-gradient-14);}.cls-17{fill:url(#radial-gradient);}.cls-18{fill:url(#radial-gradient-2);}</style><linearGradient id="linear-gradient" x1="162.99" y1="234.3" x2="430.21" y2="234.3" gradientTransform="translate(190.36 -102.38) rotate(30)" gradientUnits="userSpaceOnUse"><stop offset="0" stop-color="#bb56a0"/><stop offset="1" stop-color="#535fa8"/></linearGradient><linearGradient id="linear-gradient-2" x1="269.05" y1="449.34" x2="492.18" y2="449.34" gradientTransform="translate(190.36 -102.38) rotate(30)" gradientUnits="userSpaceOnUse"><stop offset="0.01" stop-color="#c9de76"/><stop offset="1" stop-color="#1d7da6"/></linearGradient><linearGradient id="linear-gradient-3" x1="177.73" y1="220.7" x2="653.51" y2="220.7" gradientTransform="translate(190.36 -102.38) rotate(30)" gradientUnits="userSpaceOnUse"><stop offset="0" stop-color="#f06eaa"/><stop offset="1" stop-color="#535fa8"/></linearGradient><linearGradient id="linear-gradient-4" x1="160.36" y1="422.71" x2="455.13" y2="422.71" gradientTransform="translate(190.36 -102.38) rotate(30)" gradientUnits="userSpaceOnUse"><stop offset="0.01" stop-color="#c9de76"/><stop offset="1" stop-color="#29abe2"/></linearGradient><linearGradient id="linear-gradient-5" x1="120" y1="335.53" x2="289.13" y2="458.98" gradientTransform="translate(190.36 -102.38) rotate(30)" gradientUnits="userSpaceOnUse"><stop offset="0.01" stop-color="#fff"/><stop offset="0.99" stop-color="#fff" stop-opacity="0"/></linearGradient><linearGradient id="linear-gradient-6" x1="170.94" y1="412.04" x2="563.66" y2="412.04" xlink:href="#linear-gradient-4"/><linearGradient id="linear-gradient-7" x1="115.55" y1="302.76" x2="628.1" y2="302.76" gradientTransform="translate(190.36 -102.38) rotate(30)" gradientUnits="userSpaceOnUse"><stop offset="0" stop-color="#f06eaa"/><stop offset="1" stop-color="#535fa8"/></linearGradient><linearGradient id="linear-gradient-8" x1="105.95" y1="197.99" x2="428.15" y2="338.24" xlink:href="#linear-gradient-5"/><linearGradient id="linear-gradient-9" x1="216.76" y1="334.64" x2="490.85" y2="453.95" xlink:href="#linear-gradient-5"/><linearGradient id="linear-gradient-10" x1="72.57" y1="41.23" x2="425.18" y2="229.71" xlink:href="#linear-gradient-5"/><linearGradient id="linear-gradient-11" x1="299.56" y1="92.93" x2="218.1" y2="147.41" gradientTransform="translate(190.36 -102.38) rotate(30)" gradientUnits="userSpaceOnUse"><stop offset="0" stop-color="#fff" stop-opacity="0"/><stop offset="0.51" stop-color="#fff"/><stop offset="1" stop-color="#fff" stop-opacity="0"/></linearGradient><linearGradient id="linear-gradient-12" x1="180.35" y1="478.82" x2="260.02" y2="523.9" xlink:href="#linear-gradient-11"/><linearGradient id="linear-gradient-13" x1="308.93" y1="397.09" x2="402.73" y2="600.23" gradientTransform="matrix(1, 0, 0, 1, 0, 0)" xlink:href="#linear-gradient-11"/><linearGradient id="linear-gradient-14" x1="122.81" y1="165.77" x2="332.75" y2="257.15" gradientTransform="matrix(1, 0, 0, 1, 0, 0)" xlink:href="#linear-gradient-11"/><radialGradient id="radial-gradient" cx="355.38" cy="539.45" r="34.52" gradientTransform="matrix(2.16, 1.86, -0.36, 0.31, -318.31, -627.95)" gradientUnits="userSpaceOnUse"><stop offset="0.01" stop-color="#fff"/><stop offset="0.04" stop-color="#fff" stop-opacity="0.94"/><stop offset="0.12" stop-color="#fff" stop-opacity="0.72"/><stop offset="0.21" stop-color="#fff" stop-opacity="0.53"/><stop offset="0.31" stop-color="#fff" stop-opacity="0.37"/><stop offset="0.4" stop-color="#fff" stop-opacity="0.23"/><stop offset="0.5" stop-color="#fff" stop-opacity="0.13"/><stop offset="0.59" stop-color="#fff" stop-opacity="0.06"/><stop offset="0.69" stop-color="#fff" stop-opacity="0.01"/><stop offset="0.81" stop-color="#fff" stop-opacity="0"/></radialGradient><radialGradient id="radial-gradient-2" cx="465.59" cy="651.65" r="34.52" gradientTransform="matrix(-0.01, 2.7, -0.5, -0.05, 690.99, -742.89)" xlink:href="#radial-gradient"/></defs><title>avatar</title><g class="cls-1"><g id="Layer_1" data-name="Layer 1"><path class="cls-2" d="M106.15,98.74S277.9,155.38,353.76,259.81L332,285.26S190.45,144.28,106.15,98.74Z" transform="translate(-71 -57)"/><path class="cls-3" d="M414.32,637S357.07,504.41,259.61,412.35L304,390.83S409.64,559.9,414.32,637Z" transform="translate(-71 -57)"/><path class="cls-4" d="M619.18,411.74,399,82c-22.22-33.29-77.8-33.3-100,0L226.17,191.05s142.46,111.71,201.37,295.6H504s-4.45-77.85-69-156.2c0,0,60.48,42.06,99.77,156.21h34.41C613.62,486.66,641.41,445,619.18,411.74Z" transform="translate(-71 -57)"/><path class="cls-5" d="M193.05,240.65l-38.63,57.86s52.12,40,76.22,89.82c0,0-35.13-38.21-86.11-75l-65.7,98.41c-22.24,33.3,5.55,74.92,50,74.92h247C338.08,409.18,280.58,322,193.05,240.65Z" transform="translate(-71 -57)"/><path class="cls-6" d="M195.32,258.72l-31.67,47.44c16.07,13.9,49.18,45.35,67,82.17a628.47,628.47,0,0,0-76.51-67.92L89.58,417.09c-14,21-2.29,44.21,16.63,53.66h0a50.1,50.1,0,0,0,22.63,5.15H356.91A821.15,821.15,0,0,0,195.32,258.72Z" transform="translate(-71 -57)"/><path class="cls-7" d="M168.21,277.84S287,394.25,327.79,486.65h48L220,278.92Z" transform="translate(-71 -57)"/><path class="cls-8" d="M193.05,240.65S396.43,391.76,414.32,637c0,0-56.22-209.23-246.11-359.16Z" transform="translate(-71 -57)"/><path class="cls-7" d="M245.21,162.54l-19,28.51s88.05,69.06,154.33,188c33.47,34.29,65.41,70.69,92.27,107.65C472.77,486.65,462.72,324.18,245.21,162.54Z" transform="translate(-71 -57)"/><path class="cls-9" d="M427.54,486.65S391.13,307.86,106.15,98.74c0,0,304.76,137.71,366.62,387.91Z" transform="translate(-71 -57)"/><path class="cls-10" d="M449.71,485.57l22.9.47C410.4,236.23,106.15,98.74,106.15,98.74S392.51,254.47,449.71,485.57Z" transform="translate(-71 -57)"/><path class="cls-11" d="M193.05,240.65l-12.42,18.6S372,401.58,414.32,637C396.44,391.76,193.05,240.65,193.05,240.65Z" transform="translate(-71 -57)"/><path class="cls-12" d="M388.28,87.34A42,42,0,0,0,371.8,73c-18.92-9.45-48-6.64-62.05,14.37l-51.89,77.71L589.14,388.23Z" transform="translate(-71 -57)"/><path class="cls-13" d="M274.44,140.23s22.19-34.39,35.31-52.89,52.49-33.35,78.53,0S455.74,188.4,455.74,188.4,401,115.59,381.85,94.15s-45.18-23.59-63-4.07S274.44,140.23,274.44,140.23Z" transform="translate(-71 -57)"/><path class="cls-14" d="M129.29,357.61,89.58,417.09c-11.34,17-7.34,54.17,39.26,58.81h67.93s-53-1.55-74.58-7.48-39.4-24.5-27.3-47.39S129.29,357.61,129.29,357.61Z" transform="translate(-71 -57)"/><path class="cls-15" d="M414.32,637S380,456.86,272.92,349.44C272.92,349.44,353.76,434,414.32,637Z" transform="translate(-71 -57)"/><path class="cls-16" d="M106.15,98.74S274.44,188.4,378.62,336.89C378.62,336.89,291.27,219.24,106.15,98.74Z" transform="translate(-71 -57)"/><path class="cls-17" d="M326.2,268.62c-6.93,6-45.87-18-87-53.5s-68.81-69.22-61.88-75.22,45.88,18,87,53.51S333.13,262.63,326.2,268.62Z" transform="translate(-71 -57)"/><ellipse class="cls-18" cx="359" cy="478.76" rx="17.35" ry="93.12" transform="translate(-239.79 139.75) rotate(-25.02)"/></g></g></svg>