<svg xmlns="http://www.w3.org/2000/svg" xmlns:xlink="http://www.w3.org/1999/xlink" viewBox="0 0 921.83 676.4"><defs><style>.cls-1{isolation:isolate;}.cls-2{fill:#e4ebf7;}.cls-3,.cls-4{fill:#fff;}.cls-4{stroke:#0f22d3;stroke-miterlimit:10;stroke-width:1.61px;}.cls-5{fill:#98b2d8;}.cls-6{fill:#b1c3e8;}.cls-7{fill:#b7cae5;}.cls-8{fill:#97b3d1;}.cls-9{fill:#ced9ea;}.cls-10{fill:#b6c5dd;}.cls-11{fill:#5d7ca0;}.cls-12{fill:#799cbf;}.cls-13{fill:#f2f4f9;}.cls-14{fill:#c1cfe5;}.cls-15{fill:url(#linear-gradient);}.cls-16,.cls-19{fill:#1f395e;}.cls-16{opacity:0.22;}.cls-16,.cls-25,.cls-26,.cls-32,.cls-34,.cls-36,.cls-37{mix-blend-mode:multiply;}.cls-17{fill:url(#linear-gradient-2);}.cls-18{fill:url(#linear-gradient-3);}.cls-20{fill:url(#linear-gradient-4);}.cls-21{fill:#3150bc;}.cls-22{fill:#feb19e;}.cls-23{fill:#ff856a;}.cls-24{fill:url(#linear-gradient-5);}.cls-25,.cls-27,.cls-37{fill:#9abced;}.cls-25{opacity:0.6;}.cls-28{fill:#c1c8d3;}.cls-29{fill:url(#linear-gradient-6);}.cls-30{fill:url(#linear-gradient-7);}.cls-31{fill:#4f7eb7;}.cls-32,.cls-35{fill:#7ca6d8;}.cls-32{opacity:0.71;}.cls-33{fill:#ea9ba1;}.cls-34,.cls-37{opacity:0.5;}.cls-36{fill:#e83f54;}</style><linearGradient id="linear-gradient" x1="502.93" y1="666.69" x2="502.93" y2="454.83" gradientUnits="userSpaceOnUse"><stop offset="0" stop-color="#1f3a65"/><stop offset="1" stop-color="#294a7a"/></linearGradient><linearGradient id="linear-gradient-2" x1="418.65" y1="683.12" x2="418.65" y2="626.17" xlink:href="#linear-gradient"/><linearGradient id="linear-gradient-3" x1="576.21" y1="683.12" x2="576.21" y2="626.17" xlink:href="#linear-gradient"/><linearGradient id="linear-gradient-4" x1="537.04" y1="653.97" x2="475.39" y2="556.13" gradientUnits="userSpaceOnUse"><stop offset="0" stop-color="#3855e1"/><stop offset="1" stop-color="#5c7ef7"/></linearGradient><linearGradient id="linear-gradient-5" x1="494.43" y1="374.96" x2="492.06" y2="282.54" gradientUnits="userSpaceOnUse"><stop offset="0" stop-color="#3f2323"/><stop offset="1" stop-color="#5e3434"/></linearGradient><linearGradient id="linear-gradient-6" x1="641.99" y1="625.23" x2="672.17" y2="625.23" xlink:href="#linear-gradient"/><linearGradient id="linear-gradient-7" x1="743.14" y1="502.82" x2="688.97" y2="610.33" gradientUnits="userSpaceOnUse"><stop offset="0" stop-color="#e2e8f7"/><stop offset="1" stop-color="#fff"/></linearGradient></defs><title>img</title><g class="cls-1"><g id="ae7ad495-543d-4c4b-9483-8059c5566fe6"><path class="cls-2" d="M865.14,420.71a1036.44,1036.44,0,0,1-4.85,108.73c-.23,2.43-.49,4.86-.76,7.22-1.72,15.74-3.81,30.42-6.18,44q-.63,3.48-1.25,6.87c-9.11,48.24-22,80.84-35.83,92.89H236.89s-49.39-64.94-59.3-157.68c-.26-2.36-.49-4.72-.68-7.12-3.85-46.16,2.35-98.73,29-153.42C218.1,337.29,234.1,320,252.47,308c1.44-.92,2.85-1.8,4.32-2.64,27.23-16.17,59.23-21.24,91.36-22,1.63,0,3.25-.07,4.88-.07,19.13-.21,38.22,1,56.31,2.08,1.71.14,3.41.24,5.1.35,29.21,1.87,55.54,3.24,74.65-2.08h0a51.74,51.74,0,0,0,5.06-1.69h0c21.15-7.85,31.58-26.06,24.08-65.21C503.74,140.81,518.63,85.14,551,54.4c1.65-1.59,3.36-3.1,5.1-4.55,18.32-15.07,41.47-23,67.66-22.85,1.84,0,3.7.07,5.58.14,22.26,1,46.57,7.68,71.81,20.39a199.38,199.38,0,0,1,38,25c1.44,1.19,2.87,2.43,4.27,3.69,23,20.14,42.33,45.57,58.35,74.3,1.09,1.9,2.13,3.84,3.18,5.81C846.57,234.19,864.73,334.65,865.14,420.71Z" transform="translate(-46 -27)"/><path class="cls-3" d="M853.35,580.64q-.63,3.48-1.25,6.87a170.25,170.25,0,0,1-26.8-18.17c-42.49-35-96.59-113-113-285.78-7.06-74.51,1.95-145.47,26.82-211,1.44,1.19,2.87,2.43,4.27,3.69-21.83,57.47-34.09,126.17-26.49,206.27C733,452.29,785.83,528.74,827.3,563A161.22,161.22,0,0,0,853.35,580.64Z" transform="translate(-46 -27)"/><path class="cls-3" d="M860.29,529.44c-.23,2.43-.49,4.86-.76,7.22-26.85-19.12-60.68-60.71-76.46-151-15.26-87.43-9.18-165,18.69-235.11,1.09,1.9,2.13,3.84,3.18,5.81-26.49,67.89-32.14,143-17.37,227.51C802.66,470.25,834.64,510.6,860.29,529.44Z" transform="translate(-46 -27)"/><path class="cls-3" d="M607,174.57C609.2,289.3,600.59,363.42,579,415c-22.59,54-60.28,86.65-122.2,105.84a114.28,114.28,0,0,1-34.13,5.39c-34.86,0-67.69-17.22-96.46-50.88-33.45-39.19-59.06-98.21-73.76-167.29,1.44-.92,2.85-1.8,4.32-2.64,14.39,67.92,39.49,126,72.3,164.37C366,513,409.82,528.21,455.89,514c115.16-35.74,150.74-118.17,146.42-339.16C601.08,112,608.3,62.53,623.78,27c1.84,0,3.7.07,5.58.14C613.24,61.65,605.72,111.09,607,174.57Z" transform="translate(-46 -27)"/><path class="cls-3" d="M463.25,412a60.61,60.61,0,0,1-14.77,1.84c-37.12,0-79.64-34.13-100.33-130.43,1.63,0,3.25-.07,4.88-.07C375.83,386.69,424.71,414.44,462.48,405c51-12.68,100.12-92.36,90.63-215.08C549,137.32,548.83,92.39,551,54.4c1.65-1.59,3.36-3.1,5.1-4.55-2.53,38.7-2.62,84.83,1.61,139.3C567.55,316.2,516.37,398.77,463.25,412Z" transform="translate(-46 -27)"/><path class="cls-3" d="M494.18,282c-1.79,12.36-4.93,25-10.29,35.57-7.13,14.15-17.13,22.53-29.74,24.89a24.45,24.45,0,0,1-4.46.42c-7.83,0-15-4.05-21.36-12.14-8.41-10.71-14.54-27.33-19-45.32,1.71.14,3.41.24,5.1.35,4.14,15.91,9.62,30.32,16.88,39.58,6.5,8.27,14,11.69,22.25,10.14,11.33-2.11,20.27-9.58,26.63-22.15,4.41-8.73,7.2-19.19,8.89-29.65h0A51.74,51.74,0,0,0,494.18,282Z" transform="translate(-46 -27)"/><path class="cls-3" d="M313.88,680.4h-5.06C288,608.07,258,559.86,219.47,537a105.9,105.9,0,0,0-41.88-14.29c-.26-2.36-.49-4.72-.68-7.12a109.6,109.6,0,0,1,44.26,14.86C261.36,554.34,292.52,604.69,313.88,680.4Z" transform="translate(-46 -27)"/><polygon class="cls-4" points="587.82 783.91 587.82 783.91 587.82 783.91 587.82 783.91 587.82 783.91"/><path class="cls-5" d="M213.38,462.42,199,484.85l-6-13.34L191,467c-6.38,2.43-15.81-16.51-19.59-26.62s11.33-25.77,11.33-25.77c-2.46-11.2-12.35-18.24-12.63-21.34s2.18-6.37,11.17,0,16.83,29.05,16.83,29.05c1.6-6.58-5.5-24.4-4.2-26.41s8.26.46,13.63,17.61S209.76,451,209.76,451l.07.17Z" transform="translate(-46 -27)"/><path class="cls-6" d="M182.25,412.67s10.66,18.49,9.51,25.75-6.52-1.16-6.52-1.16,4.93,8.65,3.34,11.51-7.55-4.4-7.55-4.4,7.11,13.42,0,11.44-16-22.32-9.18-24.36c0,0-.83-14.81,5.41-9.75C177.26,421.7,174.46,409.36,182.25,412.67Z" transform="translate(-46 -27)"/><path class="cls-7" d="M311.8,680.53s12-53.17,5.69-105.61a1.93,1.93,0,0,1-.05-.35,2.87,2.87,0,0,0-.05-.42c-.18-1.37-.37-2.75-.55-4.12a170.5,170.5,0,0,1-16.58,18.38c-11.54,11-26.94,22-38.75,16.83-21.69-9.4-53.41-73.34-68.13-123.84,0,0,7.36-16.72,22.06-21.87,0,0,29.42,59.44,55.35,73.53,0,0,13.93-25.25,24.75-62.22,6.92-23.59,17.3-38.52,30.4-46.55a50.64,50.64,0,0,1,24.77-7.4l22.73-16.09a57.71,57.71,0,0,1,9.43,1.16,76,76,0,0,1,42.7,24.58c22.06,25.49,53.8,254,53.8,254Z" transform="translate(-46 -27)"/><path class="cls-8" d="M317.44,574.57c-.19-1.51-.4-3-.6-4.54a170.5,170.5,0,0,1-16.58,18.38l6.71-87C313.79,541.23,317.07,571,317.44,574.57Z" transform="translate(-46 -27)"/><path class="cls-9" d="M382.87,402c-3.51,33.81-25.82,65-41.93,64.62-13-.36-14.86-28.52-15-42.29a50.64,50.64,0,0,1,24.77-7.4l22.73-16.09A57.71,57.71,0,0,1,382.87,402Z" transform="translate(-46 -27)"/><path class="cls-8" d="M344.3,646s51.19-80.79,53.41-165.74l15.1,71.6L407,626.38Z" transform="translate(-46 -27)"/><path class="cls-5" d="M342.81,680.51H285.49s.15-11.89,9-15.85S309,644,335.56,646.18Z" transform="translate(-46 -27)"/><path class="cls-10" d="M401.46,600.62s-27,23.55-69.53,40.27c0,0-5.9,21.57,4.45,39.62h82.27Z" transform="translate(-46 -27)"/><path class="cls-11" d="M300.9,353.72s-12.22-25.59-10.72-42.82,12-13.18,12-13.18-.49-41.87,25.07-31.16c0,0-.57-12.79,5-12.46s14.33,19.8,14.33,19.8,2.17-14.42,5.95-11,4.95,18.29,12.84,25.45,12.78,16.44,6.58,45.49-1.55,31.1-3.76,46c-2.1,14.17-3.78,22.78-9.58,23.58s-28-34.71-28-34.71Z" transform="translate(-46 -27)"/><path class="cls-5" d="M373.44,400.8s-14.23,52.36-29.18,48.42c-7.43-2-9.08-8.84-9.15-16.8-.07-10.39,2.6-22.57-1.44-27.68l17.92-38.62,4-8.52A167.71,167.71,0,0,0,373.44,400.8Z" transform="translate(-46 -27)"/><path class="cls-12" d="M335.11,432.42c-.07-10.39,2.6-22.57-1.44-27.68l17.92-38.62c1.54,2.71,2.63,7.53,3.07,15.1C357,421.12,343.12,430.38,335.11,432.42Z" transform="translate(-46 -27)"/><path class="cls-5" d="M299.16,333.36s4.85,67.45,23,82.63c15.78,13.19,34.93-26.72,34.55-46.46,0,0,6.87-8,5.72-20.84s-10.13-8.62-11.2,12.15c0,0-7.31-.79-8.66-26.75-4.59,5.76-9.54,4-14.74-3,0,0-2.58,14.45-15.86-2.44C312,328.63,307,339,299.16,333.36Z" transform="translate(-46 -27)"/><path class="cls-11" d="M727.23,594.68s23.42,59.27,31.54,88h-82.6s-4.71-34.65-13-67.94Z" transform="translate(-46 -27)"/><path class="cls-12" d="M695,607.88c-4.52,22.72-11.41,42.12-21.64,56.84l2.8,18-100-1.87,11.13-103.77Z" transform="translate(-46 -27)"/><path class="cls-12" d="M851.82,284.4s3.31-31.43,9.89-42.58,24.57-27.64,26.7-21.77-15.87,24.27-15.87,24.27,8.13-2.94,15.09,15.26-15.48,32.27-15.48,32.27l-4.45,15.26-17.8-17Z" transform="translate(-46 -27)"/><path class="cls-5" d="M874.84,244.91s-10,15.47-8.57,19.89,7-2.52,7-2.52-4.51,10.41-1,13.1,8.92-6.32,8.92-6.32-4.52,9.47-1.92,11.21,16.47-13.1,14-16.57-3.84-.64-3.84-.64,2.91-7.41,0-9.78c-3.16-2.58-4.74,2.05-4.74,2.05s2.37-5.68.46-7.89-6,.63-6,.63S880.47,238.6,874.84,244.91Z" transform="translate(-46 -27)"/><path class="cls-5" d="M865.53,244.54c-3-1.32-9.24,8.29-9.24,8.29-2.44,4.75-2.94,14.22-3,18.58-.32,12.2-3.36,18.68-3.36,18.68l9,8.64c7-13.66,4.7-31.17,3.57-37.36C865.92,253.64,867.34,245.33,865.53,244.54Z" transform="translate(-46 -27)"/><path class="cls-7" d="M871.37,310.34s-30.18,121.91-78.15,132.72c-21.46,4.82-37.66,5.31-49,4.4-13.52-1.06-20.16-4.16-20.65-4.37,0,0,0,0,0,0s-13.16,37.18-4.64,90.6,11.61,64.54,11.61,64.54-64.67,72.11-117.26,6.44l-47.46-111.9L551,457.67s13.65-68,52.15-112.19l0,0c14.52-16.69,32.58-30,54.75-34.93A92.18,92.18,0,0,1,695.3,310s10.45,4.47,27.45,13.91c9.15,5.07,20.2,11.58,32.53,19.61,35.22,22.89,44.9,29.72,44.9,29.72s37.52-56.13,47.21-90.18C847.39,283.05,866.73,286,871.37,310.34Z" transform="translate(-46 -27)"/><path class="cls-8" d="M629.2,366c-.17,27.32-4,53.79-5.72,74.35l29.83-9.15,46.41,69.58s5.88,20.39-6.09,23.91c-9.38,2.76-53.21,12-53.21,12-10.1,20.85-14.67,52.75-19.71,83.7l-44.5-117.27Z" transform="translate(-46 -27)"/><path class="cls-9" d="M695.3,372.56c-20.78-8-31.71-36.34-37.43-62A92.18,92.18,0,0,1,695.3,310s10.45,4.47,27.45,13.91C724.75,346.4,724,383.58,695.3,372.56Z" transform="translate(-46 -27)"/><path class="cls-8" d="M749.87,397.49s-4.46,26.48-5.64,50c-13.52-1.06-20.16-4.16-20.65-4.37,0,0,0,0,0,0S735.36,412.46,749.87,397.49Z" transform="translate(-46 -27)"/><path class="cls-13" d="M698,512.38l-51.83,11.41c-1.54.34-3-1.27-3.18-3.6L631.54,400.55c-.23-2.32.84-4.48,2.37-4.82l51.83-11.41c1.54-.34,3,1.27,3.18,3.6l11.45,119.64C700.6,509.89,699.53,512.05,698,512.38Z" transform="translate(-46 -27)"/><path class="cls-5" d="M660.28,436.22l7.93-4.69s7.55-31.69,16.94-11.74c0,0,6.48-5.87,6.28-9.09s-.29-7.93-.29-7.93,13.14,4.31,10.2,32.09-14.16,24.25-25.19,24.55l-13.74,8.21Z" transform="translate(-46 -27)"/><path class="cls-14" d="M665.4,475s-61.81,62-88.51,32.11a135.6,135.6,0,0,1-11.08-14.33L551,457.67s13.65-68,52.15-112.19l0,0c12.77-8.7,26.1-5.53,26.78,12.4,1.64,42.7-22.45,69-25.43,88.34l55.4-17S668.88,443.69,665.4,475Z" transform="translate(-46 -27)"/><path class="cls-11" d="M738.05,245s8.84-28.62,5.22-45.11-13.44-9.52-13.44-9.52-4.71-41.26-28.48-23.46c0,0-1-12.71-6.47-10.79s-11.62,23.52-11.62,23.52-3.92-13.54-7.21-9.12-2.59,19.37-9.45,28.66-10.51,19.78-.83,46.54,5.38,30.11,9.4,44.13c3.82,13.31,6.54,21.3,12.33,20.42s23.19-42.07,23.19-42.07Z" transform="translate(-46 -27)"/><path class="cls-5" d="M672.64,311.94s13.67,51.07,35.14,42.71c7.31-2.85,7.35-14.75,6.43-22.58-1.22-10.22-5.35-21.43-2-27.6l-22.4-32.82-4.93-7.25A192.39,192.39,0,0,1,672.64,311.94Z" transform="translate(-46 -27)"/><path class="cls-12" d="M714.21,332.07c-1.22-10.22-5.35-21.43-2-27.6l-22.4-32.82c-1.17,3.1-1.64,8.15-1.14,15.71C691.28,327.22,706.09,332.35,714.21,332.07Z" transform="translate(-46 -27)"/><path class="cls-5" d="M737.24,224.52s3.6,67.63-12.34,87.71c-13.85,17.46-37.62-16.27-39.69-35.77,0,0-7.74-5.86-8.21-18.85s8.89-11.34,12.52,8.75c0,0,7.08-2.86,5.19-28.74,5.22,4.34,9.86,1.19,14.1-7.17,0,0,4.32,13.45,15.27-6.92C724.08,223.53,730.28,232.23,737.24,224.52Z" transform="translate(-46 -27)"/><path class="cls-15" d="M623.86,643.13v0A63.59,63.59,0,0,1,621,654.54c-11.21,31.09-59.79,26-59.79,26H450.34c-45.88,0-64.27-1.73-68.65-23.46-.26-1.16-.44-2.39-.61-3.69-3.11-25.25,12.38-107.4,41-163.74,14.65-28.8,29.79-44,43.28-51.9a61,61,0,0,1,32.25-8.56c14.07,0,25.42,1.59,35.06,5,25.86,9.19,39.4,31.38,59.69,70.71C617.2,553,629.41,609.4,623.86,643.13Z" transform="translate(-46 -27)"/><path class="cls-16" d="M428.87,623.18c12-28.69,15.81-68.5,19.15-108.9l10.45,82.16H549l16.64-82.16c-.39,38.4,3.09,76.06,15.1,112.09C580.76,626.37,521.55,728,428.87,623.18Z" transform="translate(-46 -27)"/><path class="cls-17" d="M456.36,680.53h-6c-45.88,0-64.27-1.73-68.65-23.46-2.4-17.07.65-35,14.37-40.38,21.5-8.38,58.93,24.64,58.93,24.64Z" transform="translate(-46 -27)"/><path class="cls-18" d="M623.86,643.13s0,0,0,0A63.59,63.59,0,0,1,621,654.54c-11.21,31.09-59.79,26-59.79,26h-32.9l4.18-42.26s58.33-40.95,79.23-28.17C621.93,616.33,625.07,629.29,623.86,643.13Z" transform="translate(-46 -27)"/><path class="cls-19" d="M532.68,434.18c-1,19.76-6.36,55.74-32.6,55.74-27.65,0-33.51-35.46-34.71-52.18a61,61,0,0,1,32.25-8.56C511.69,429.18,523,430.77,532.68,434.18Z" transform="translate(-46 -27)"/><path class="cls-3" d="M556.57,680.51H450.34c-2.56,0-4.64-3.15-4.64-7h0c0-3.89,2.08-7.05,4.64-7.05H556.57c2.57,0,4.64,3.16,4.64,7.05h0C561.21,677.36,559.14,680.51,556.57,680.51Z" transform="translate(-46 -27)"/><path class="cls-20" d="M569.43,559.4l-.39,3.66v0L558,666.44H449.76L438.87,559.33c-.53-5.25,2.16-10,5.65-10H563.79C567.32,549.33,570,554.11,569.43,559.4Z" transform="translate(-46 -27)"/><path class="cls-21" d="M569,563.09,558,666.44H450.34l36.5-5.77C524.32,654.79,556.25,616.83,569,563.09Z" transform="translate(-46 -27)"/><path class="cls-22" d="M499.64,475h-.72a18.33,18.33,0,0,1-10.45-3.21c-6.83-4.64-11-15.45-10.8-26.79,0-1.17,0-2.29,0-3.42,0-9.4-.38-17.22-.38-17.22V420.1l39-2.64a203.51,203.51,0,0,0,1.56,22.14c0,.11,0,.18,0,.29C520.16,457.67,511.57,474.5,499.64,475Z" transform="translate(-46 -27)"/><path class="cls-23" d="M517.89,439.6c-16.26,28.95-32.95,12-40.19,1.94,0-9.4-.38-17.22-.38-17.22V420.1l39-2.64A203.51,203.51,0,0,0,517.89,439.6Z" transform="translate(-46 -27)"/><path class="cls-22" d="M465.39,391.34s12.09,51.71,32.26,51.71,28.56-55.68,28.56-55.68V339H463.84Z" transform="translate(-46 -27)"/><path class="cls-22" d="M458.9,362.17s-5.94,1.65-4.93,12,7.21,22.89,12.24,16.29Z" transform="translate(-46 -27)"/><path class="cls-22" d="M530.92,357.85s6,.4,6,10.86-5.08,24.16-10.66,18.66Z" transform="translate(-46 -27)"/><path class="cls-24" d="M530.92,357.85s-2.1,18.08-4.71,29.52c0,0-4.78-1.46-6.33-20.53,0,0-10.33,3.07-16.81-11.75,0,0-1.55,14.67-11.51,4.25-6.65,8.23-14.5,9.1-23.41,3.53,0,0,1.49,19.23-2.76,28.47,0,0-1.55-7.6-6.49-29.17,0,0-2.13.12-3.48,3.05,0,0-10.69-31.7-5.66-47s11.81-9.39,11.81-9.39S459.05,288,474,280.41s14.9-17.9,17.22-15.84,3.29,9.68,3.29,9.68,25.73-4.11,32.7,37.85c0,0,18.59.9,7.56,48.14C534.72,360.24,534,358.29,530.92,357.85Z" transform="translate(-46 -27)"/><path class="cls-4" d="M555.41,417.46" transform="translate(-46 -27)"/><path class="cls-25" d="M431.49,401.79H334.25c-3.16,0-5.73,3.89-5.73,8.69v88c0,4.8,2.57,8.69,5.73,8.69h67.08l17.49,23.51c1.32,1.78,3.34-.27,2.76-2.8l-4.73-20.71h14.64c3.17,0,5.73-3.89,5.73-8.69v-88C437.22,405.68,434.66,401.79,431.49,401.79Z" transform="translate(-46 -27)"/><g class="cls-26"><path class="cls-27" d="M364.41,425.34H342c-.84,0-1.52-1-1.52-2.31h0c0-1.28.68-2.32,1.52-2.32h22.4c.85,0,1.53,1,1.53,2.32h0C365.94,424.3,365.26,425.34,364.41,425.34Z" transform="translate(-46 -27)"/><path class="cls-27" d="M419.66,445.42H354.74c-.84,0-1.53-1-1.53-2.32h0c0-1.28.69-2.32,1.53-2.32h64.92c.84,0,1.52,1,1.52,2.32h0C421.18,444.38,420.5,445.42,419.66,445.42Z" transform="translate(-46 -27)"/><path class="cls-27" d="M419.66,459.7H342c-.84,0-1.52-1-1.52-2.32h0c0-1.28.68-2.31,1.52-2.31h77.65c.84,0,1.52,1,1.52,2.31h0C421.18,458.66,420.5,459.7,419.66,459.7Z" transform="translate(-46 -27)"/><path class="cls-27" d="M419.66,474H342c-.84,0-1.52-1-1.52-2.31h0c0-1.28.68-2.32,1.52-2.32h77.65c.84,0,1.52,1,1.52,2.32h0C421.18,473,420.5,474,419.66,474Z" transform="translate(-46 -27)"/><path class="cls-27" d="M419.66,488.27H342c-.84,0-1.52-1-1.52-2.32h0c0-1.28.68-2.31,1.52-2.31h77.65c.84,0,1.52,1,1.52,2.31h0C421.18,487.23,420.5,488.27,419.66,488.27Z" transform="translate(-46 -27)"/></g><rect class="cls-28" x="108.25" y="653.51" width="710.89" height="22.89" rx="1.75"/><path class="cls-29" d="M642,597.06h30.18a0,0,0,0,1,0,0v48.69a7.65,7.65,0,0,1-7.65,7.65H649.64a7.65,7.65,0,0,1-7.65-7.65V597.06A0,0,0,0,1,642,597.06Z"/><path class="cls-30" d="M697.57,624.06V611.84c0-2,1.07-3.63,2.39-3.63h3c1.32,0,2.39-1.62,2.39-3.63V600c0-2-1.07-3.63-2.39-3.63h-9.8c-6.73,0-12.19-8.28-12.19-18.49h0c0-10.21,5.46-18.48,12.19-18.48h13c1.32,0,2.4-1.63,2.4-3.64v-1.65c0-10.57,5.65-19.14,12.62-19.14h0c7,0,12.63,8.57,12.63,19.14h0c0,11.43-6.11,20.69-13.64,20.69H697.35c-1.32,0-2.39,1.63-2.39,3.63h0c0,2,1.07,3.63,2.39,3.63h12.48c4.61,0,8.34,5.67,8.34,12.66v7.92c0,7-3.73,12.66-8.34,12.66h0c-1.32,0-2.39,1.62-2.39,3.63v5.17Z" transform="translate(-46 -27)"/><rect class="cls-25" x="545.09" y="363.67" width="90.26" height="168.58" rx="3.82"/><path class="cls-31" d="M680.87,553.67H601.64c-3.68,0-6.68-4.54-6.68-10.12V391.7c0-5.58,3-10.13,6.68-10.13h79.23c3.68,0,6.68,4.55,6.68,10.13V543.55C687.55,549.13,684.55,553.67,680.87,553.67ZM601.64,385.09c-2.4,0-4.36,3-4.36,6.61V543.55c0,3.64,2,6.6,4.36,6.6h79.23c2.4,0,4.36-3,4.36-6.6V391.7c0-3.64-2-6.61-4.36-6.61Z" transform="translate(-46 -27)"/><g class="cls-26"><path class="cls-32" d="M622.24,444.61h-17.6v-32h17.6ZM607,441.09h13V416.15H607Z" transform="translate(-46 -27)"/><path class="cls-33" d="M617.81,434.69l-5.23-8.86,1.72-2.35,3.18,5.38a36.43,36.43,0,0,1,13-14.34l.88,3.25a33.5,33.5,0,0,0-12.78,14.8Z" transform="translate(-46 -27)"/><path class="cls-27" d="M667.15,424.6H639.83c-1,0-1.72-1.17-1.72-2.61h0c0-1.45.77-2.62,1.72-2.62h27.32c1,0,1.73,1.17,1.73,2.62h0C668.88,423.43,668.1,424.6,667.15,424.6Z" transform="translate(-46 -27)"/><path class="cls-27" d="M667.15,437.3H639.83c-1,0-1.72-1.17-1.72-2.61h0c0-1.45.77-2.62,1.72-2.62h27.32c1,0,1.73,1.17,1.73,2.62h0C668.88,436.13,668.1,437.3,667.15,437.3Z" transform="translate(-46 -27)"/></g><g class="cls-26"><path class="cls-32" d="M622.24,493.61h-17.6v-32h17.6ZM607,490.09h13V465.15H607Z" transform="translate(-46 -27)"/><path class="cls-33" d="M617.81,483.69l-5.23-8.85,1.72-2.36,3.18,5.38a36.5,36.5,0,0,1,13-14.34l.88,3.26a33.45,33.45,0,0,0-12.78,14.79Z" transform="translate(-46 -27)"/><path class="cls-27" d="M667.15,473.61H639.83c-1,0-1.72-1.17-1.72-2.62h0c0-1.44.77-2.61,1.72-2.61h27.32c1,0,1.73,1.17,1.73,2.61h0C668.88,472.44,668.1,473.61,667.15,473.61Z" transform="translate(-46 -27)"/><path class="cls-27" d="M667.15,486.31H639.83c-1,0-1.72-1.18-1.72-2.62h0c0-1.44.77-2.61,1.72-2.61h27.32c1,0,1.73,1.17,1.73,2.61h0C668.88,485.13,668.1,486.31,667.15,486.31Z" transform="translate(-46 -27)"/></g><g class="cls-26"><path class="cls-32" d="M622.24,542.61h-17.6v-32h17.6ZM607,539.09h13V514.15H607Z" transform="translate(-46 -27)"/><path class="cls-33" d="M617.81,532.69l-5.23-8.85,1.72-2.35,3.18,5.37a36.42,36.42,0,0,1,13-14.33l.88,3.25a33.45,33.45,0,0,0-12.78,14.79Z" transform="translate(-46 -27)"/><path class="cls-27" d="M667.15,522.61H639.83c-1,0-1.72-1.17-1.72-2.61h0c0-1.45.77-2.62,1.72-2.62h27.32c1,0,1.73,1.17,1.73,2.62h0C668.88,521.44,668.1,522.61,667.15,522.61Z" transform="translate(-46 -27)"/><path class="cls-27" d="M667.15,535.31H639.83c-1,0-1.72-1.17-1.72-2.62h0c0-1.44.77-2.61,1.72-2.61h27.32c1,0,1.73,1.17,1.73,2.61h0C668.88,534.14,668.1,535.31,667.15,535.31Z" transform="translate(-46 -27)"/></g><rect class="cls-25" x="823.44" y="131.45" width="90.26" height="168.58" rx="3.82"/><path class="cls-31" d="M961.15,319.19H881.92c-3.68,0-6.68-4.54-6.68-10.12V157.21c0-5.58,3-10.12,6.68-10.12h79.23c3.68,0,6.68,4.54,6.68,10.12V309.07C967.83,314.65,964.83,319.19,961.15,319.19ZM881.92,150.61c-2.4,0-4.35,3-4.35,6.6V309.07c0,3.64,1.95,6.6,4.35,6.6h79.23c2.4,0,4.36-3,4.36-6.6V157.21c0-3.64-2-6.6-4.36-6.6Z" transform="translate(-46 -27)"/><g class="cls-34"><ellipse class="cls-35" cx="848.16" cy="176.5" rx="13.93" ry="21.13"/><path class="cls-36" d="M897.84,200.71l9.28-25.09c8.52,3.23,12.58,15.41,8.52,27.88Z" transform="translate(-46 -27)"/><path class="cls-27" d="M889.13,247.51c0,3.41-1.82,6.16-4.07,6.16s-4.06-2.75-4.06-6.16,1.82-6.16,4.06-6.16S889.13,244.11,889.13,247.51Z" transform="translate(-46 -27)"/><path class="cls-27" d="M889.13,274.8c0,3.4-1.82,6.16-4.07,6.16S881,278.2,881,274.8s1.82-6.16,4.06-6.16S889.13,271.4,889.13,274.8Z" transform="translate(-46 -27)"/><path class="cls-27" d="M942.14,253.67h-32.5c-2.25,0-4.07-2.75-4.07-6.16h0c0-3.4,1.82-6.16,4.07-6.16h32.5c2.25,0,4.07,2.76,4.07,6.16h0C946.21,250.92,944.39,253.67,942.14,253.67Z" transform="translate(-46 -27)"/><path class="cls-27" d="M942.14,281h-32.5c-2.25,0-4.07-2.76-4.07-6.16h0c0-3.4,1.82-6.16,4.07-6.16h32.5c2.25,0,4.07,2.76,4.07,6.16h0C946.21,278.2,944.39,281,942.14,281Z" transform="translate(-46 -27)"/><path class="cls-27" d="M889.13,302.53c0,3.4-1.82,6.16-4.07,6.16s-4.06-2.76-4.06-6.16,1.82-6.16,4.06-6.16S889.13,299.13,889.13,302.53Z" transform="translate(-46 -27)"/><path class="cls-27" d="M942.14,308.69h-32.5c-2.25,0-4.07-2.76-4.07-6.16h0c0-3.4,1.82-6.16,4.07-6.16h32.5c2.25,0,4.07,2.76,4.07,6.16h0C946.21,305.93,944.39,308.69,942.14,308.69Z" transform="translate(-46 -27)"/></g><rect class="cls-25" x="145.75" y="53.82" width="90.26" height="196.75" rx="3.82"/><path class="cls-31" d="M271.47,271.7H192.24c-3.68,0-6.68-4.55-6.68-10.13v-180c0-5.58,3-10.12,6.68-10.12h79.23c3.68,0,6.68,4.54,6.68,10.12v180C278.15,267.15,275.15,271.7,271.47,271.7ZM192.24,75c-2.4,0-4.36,3-4.36,6.6v180c0,3.64,2,6.6,4.36,6.6h79.23c2.4,0,4.35-3,4.35-6.6v-180c0-3.64-1.95-6.6-4.35-6.6Z" transform="translate(-46 -27)"/><path class="cls-35" d="M232.63,161.8l-1.13,1.52a1.37,1.37,0,0,1-2.46-.22l-11.62-19.85,3.74-5,11.62,19.85A3.66,3.66,0,0,1,232.63,161.8Z" transform="translate(-46 -27)"/><path class="cls-35" d="M213.37,106.79c-7.36,0-13.35,9-13.35,20.24s6,20.25,13.35,20.25,13.35-9.05,13.35-20.25S220.75,106.79,213.37,106.79Zm0,34c-5,0-9.1-6.16-9.1-13.8s4.09-13.8,9.1-13.8,9.1,6.17,9.1,13.8S218.4,140.83,213.37,140.83Z" transform="translate(-46 -27)"/><path class="cls-27" d="M267.46,117.94H246.37c-1.34,0-2.42-1.65-2.42-3.67h0c0-2,1.08-3.67,2.42-3.67h21.09c1.33,0,2.42,1.64,2.42,3.67h0C269.88,116.29,268.79,117.94,267.46,117.94Z" transform="translate(-46 -27)"/><path class="cls-27" d="M267.46,137H246.37c-1.34,0-2.42-1.64-2.42-3.67h0c0-2,1.08-3.67,2.42-3.67h21.09c1.33,0,2.42,1.65,2.42,3.67h0C269.88,135.37,268.79,137,267.46,137Z" transform="translate(-46 -27)"/><path class="cls-27" d="M267.46,154.61H246.37C245,154.61,244,153,244,151h0c0-2,1.08-3.67,2.42-3.67h21.09c1.33,0,2.42,1.64,2.42,3.67h0C269.88,153,268.79,154.61,267.46,154.61Z" transform="translate(-46 -27)"/><path class="cls-27" d="M241.19,203.62h-32.5c-1.53,0-2.76-1.87-2.76-4.18h0c0-2.31,1.23-4.18,2.76-4.18h32.5c1.52,0,2.76,1.87,2.76,4.18h0C244,201.75,242.71,203.62,241.19,203.62Z" transform="translate(-46 -27)"/><path class="cls-27" d="M241.19,229.81h-32.5c-1.53,0-2.76-1.87-2.76-4.18h0c0-2.31,1.23-4.19,2.76-4.19h32.5c1.52,0,2.76,1.88,2.76,4.19h0C244,227.94,242.71,229.81,241.19,229.81Z" transform="translate(-46 -27)"/><path class="cls-27" d="M241.19,256h-32.5c-1.53,0-2.76-1.88-2.76-4.19h0c0-2.3,1.23-4.18,2.76-4.18h32.5c1.52,0,2.76,1.88,2.76,4.18h0C244,254.12,242.71,256,241.19,256Z" transform="translate(-46 -27)"/><path class="cls-27" d="M266.66,199.44c0,3.7-2,6.71-4.43,6.71s-4.42-3-4.42-6.71,2-6.72,4.42-6.72S266.66,195.73,266.66,199.44Z" transform="translate(-46 -27)"/><path class="cls-27" d="M266.66,225.63c0,3.7-2,6.71-4.43,6.71s-4.42-3-4.42-6.71,2-6.72,4.42-6.72S266.66,221.92,266.66,225.63Z" transform="translate(-46 -27)"/><path class="cls-27" d="M266.66,251.81c0,3.71-2,6.72-4.43,6.72s-4.42-3-4.42-6.72,2-6.71,4.42-6.71S266.66,248.11,266.66,251.81Z" transform="translate(-46 -27)"/><rect class="cls-25" x="462.96" y="78.13" width="164.27" height="175.18" rx="6.64"/><path class="cls-31" d="M668.68,274H523.56c-5.92,0-10.73-7.31-10.73-16.29V111.59c0-9,4.81-16.28,10.73-16.28H668.68c5.92,0,10.74,7.3,10.74,16.28V257.72C679.42,266.7,674.6,274,668.68,274ZM523.56,98.83c-4.64,0-8.41,5.72-8.41,12.76V257.72c0,7,3.77,12.77,8.41,12.77H668.68c4.64,0,8.42-5.73,8.42-12.77V111.59c0-7-3.78-12.76-8.42-12.76Z" transform="translate(-46 -27)"/><path class="cls-37" d="M610,140.79h-80.4c-2.32,0-4.21-2.86-4.21-6.39h0c0-3.52,1.89-6.38,4.21-6.38H610c2.32,0,4.21,2.86,4.21,6.38h0C614.17,137.93,612.28,140.79,610,140.79Z" transform="translate(-46 -27)"/><rect class="cls-32" x="479.35" y="136.23" width="88.81" height="71.3" rx="2.06"/><path class="cls-37" d="M652.62,140.79h-23.8c-2.32,0-4.21-2.86-4.21-6.39h0c0-3.52,1.89-6.38,4.21-6.38h23.8c2.33,0,4.21,2.86,4.21,6.38h0C656.83,137.93,655,140.79,652.62,140.79Z" transform="translate(-46 -27)"/><path class="cls-37" d="M654.22,174.68h-25c-1.44,0-2.61-1.78-2.61-4h0c0-2.19,1.17-4,2.61-4h25c1.44,0,2.61,1.77,2.61,4h0C656.83,172.9,655.66,174.68,654.22,174.68Z" transform="translate(-46 -27)"/><path class="cls-37" d="M654.22,192.58h-25c-1.44,0-2.61-1.78-2.61-4h0c0-2.19,1.17-4,2.61-4h25c1.44,0,2.61,1.77,2.61,4h0C656.83,190.8,655.66,192.58,654.22,192.58Z" transform="translate(-46 -27)"/><path class="cls-37" d="M654.22,210.48h-25c-1.44,0-2.61-1.78-2.61-4h0c0-2.19,1.17-4,2.61-4h25c1.44,0,2.61,1.78,2.61,4h0C656.83,208.7,655.66,210.48,654.22,210.48Z" transform="translate(-46 -27)"/><path class="cls-37" d="M654.22,228.38h-25c-1.44,0-2.61-1.78-2.61-4h0c0-2.19,1.17-4,2.61-4h25c1.44,0,2.61,1.78,2.61,4h0C656.83,226.6,655.66,228.38,654.22,228.38Z" transform="translate(-46 -27)"/><path class="cls-37" d="M637.24,262.42H544.65c-1.92,0-3.48-2.37-3.48-5.29h0c0-2.91,1.56-5.28,3.48-5.28h92.59c1.92,0,3.48,2.37,3.48,5.28h0C640.72,260.05,639.16,262.42,637.24,262.42Z" transform="translate(-46 -27)"/><rect class="cls-25" x="6.8" y="282.94" width="152.86" height="149.65" rx="5.37"/><path class="cls-31" d="M192.28,452.69H54.9c-4.91,0-8.9-6.05-8.9-13.49V313c0-7.44,4-13.5,8.9-13.5H192.28c4.91,0,8.9,6.06,8.9,13.5V439.2C201.18,446.64,197.19,452.69,192.28,452.69ZM54.9,303c-3.63,0-6.58,4.48-6.58,10V439.2c0,5.5,3,10,6.58,10H192.28c3.63,0,6.58-4.47,6.58-10V313c0-5.5-3-10-6.58-10Z" transform="translate(-46 -27)"/><g class="cls-34"><path class="cls-35" d="M107.8,379c-3.55,5.42-8.47,8.76-13.93,8.76-10.86,0-19.69-13.38-19.69-29.86S83,328,93.87,328a13.73,13.73,0,0,1,6.32,1.58l-6.32,28.31Z" transform="translate(-46 -27)"/><path class="cls-36" d="M116.17,355.63a32.71,32.71,0,0,1-4.91,17.91L99.43,355.63l5.37-24C111.4,335,116.17,344.45,116.17,355.63Z" transform="translate(-46 -27)"/><path class="cls-27" d="M182.72,389.56H137.45v-58c0-1,.51-1.76,1.16-1.76s1.16.78,1.16,1.76V386h42.95c.64,0,1.16.79,1.16,1.77S183.36,389.56,182.72,389.56Z" transform="translate(-46 -27)"/><rect class="cls-27" x="100.93" y="332.69" width="5.8" height="26.34"/><rect class="cls-36" x="112.92" y="319.33" width="5.8" height="39.71"/><rect class="cls-27" x="124.73" y="339.18" width="5.8" height="19.85"/><rect class="cls-27" x="27.21" y="383.29" width="31.35" height="6.16" rx="1.41"/><rect class="cls-27" x="68.81" y="383.29" width="31.35" height="6.16" rx="1.41"/><rect class="cls-27" x="107.89" y="383.29" width="31.35" height="6.16" rx="1.41"/><path class="cls-27" d="M120.42,438.46H93.14c-1.12,0-2-1.38-2-3.08h0c0-1.7.91-3.08,2-3.08h27.28c1.12,0,2,1.38,2,3.08h0C122.45,437.08,121.54,438.46,120.42,438.46Z" transform="translate(-46 -27)"/><path class="cls-27" d="M159.51,438.46H132.23c-1.13,0-2-1.38-2-3.08h0c0-1.7.91-3.08,2-3.08h27.28c1.12,0,2,1.38,2,3.08h0C161.54,437.08,160.63,438.46,159.51,438.46Z" transform="translate(-46 -27)"/></g></g></g></svg>