<svg xmlns="http://www.w3.org/2000/svg" xmlns:xlink="http://www.w3.org/1999/xlink" viewBox="0 0 142.67 11.95"><defs><style>.cls-1{isolation:isolate;}.cls-2{font-size:7.5px;fill:#94a3bb;font-family:Montserrat-ExtraBoldItalic, Montserrat;font-weight:800;font-style:italic;}.cls-3{letter-spacing:-0.01em;}.cls-4{letter-spacing:-0.02em;}.cls-5{letter-spacing:0em;}.cls-6{letter-spacing:0em;}.cls-7{letter-spacing:-0.01em;}.cls-8{letter-spacing:0em;}.cls-9{letter-spacing:-0.01em;}.cls-10{letter-spacing:-0.01em;}.cls-11{fill:url(#linear-gradient);}.cls-12{fill:url(#linear-gradient-2);}.cls-13{fill:url(#linear-gradient-3);}.cls-14{fill:url(#linear-gradient-4);}.cls-15{opacity:0.32;fill:url(#linear-gradient-5);}.cls-16{opacity:0.14;mix-blend-mode:multiply;}.cls-17{fill:url(#linear-gradient-6);}.cls-18{fill:url(#linear-gradient-7);}.cls-19,.cls-20,.cls-21{opacity:0.24;}.cls-19{fill:url(#linear-gradient-8);}.cls-20{fill:url(#linear-gradient-9);}.cls-21{fill:url(#linear-gradient-10);}.cls-22,.cls-23{opacity:0.47;}.cls-22{fill:url(#linear-gradient-11);}.cls-23{fill:url(#linear-gradient-12);}.cls-24,.cls-25{opacity:0.48;}.cls-24{fill:url(#linear-gradient-13);}.cls-25{fill:url(#linear-gradient-14);}.cls-26{fill:url(#radial-gradient);}.cls-27{fill:url(#radial-gradient-2);}</style><linearGradient id="linear-gradient" x1="27.81" y1="2.01" x2="33.48" y2="2.01" gradientTransform="translate(-16.99 -10.57) rotate(30)" gradientUnits="userSpaceOnUse"><stop offset="0" stop-color="#bb56a0"/><stop offset="1" stop-color="#535fa8"/></linearGradient><linearGradient id="linear-gradient-2" x1="30" y1="6.4" x2="34.7" y2="6.4" gradientTransform="translate(-16.99 -10.57) rotate(30)" gradientUnits="userSpaceOnUse"><stop offset="0.01" stop-color="#c9de76"/><stop offset="1" stop-color="#1d7da6"/></linearGradient><linearGradient id="linear-gradient-3" x1="28.12" y1="1.67" x2="38.21" y2="1.67" gradientTransform="translate(-16.99 -10.57) rotate(30)" gradientUnits="userSpaceOnUse"><stop offset="0" stop-color="#f06eaa"/><stop offset="1" stop-color="#535fa8"/></linearGradient><linearGradient id="linear-gradient-4" x1="27.65" y1="5.94" x2="33.94" y2="5.94" gradientTransform="translate(-16.99 -10.57) rotate(30)" gradientUnits="userSpaceOnUse"><stop offset="0.01" stop-color="#c9de76"/><stop offset="1" stop-color="#29abe2"/></linearGradient><linearGradient id="linear-gradient-5" x1="26.91" y1="4.11" x2="30.43" y2="6.67" gradientTransform="translate(-16.99 -10.57) rotate(30)" gradientUnits="userSpaceOnUse"><stop offset="0.01" stop-color="#fff"/><stop offset="0.99" stop-color="#fff" stop-opacity="0"/></linearGradient><linearGradient id="linear-gradient-6" x1="27.93" y1="5.66" x2="36.2" y2="5.66" xlink:href="#linear-gradient-4"/><linearGradient id="linear-gradient-7" x1="26.79" y1="3.41" x2="37.62" y2="3.41" gradientTransform="translate(-16.99 -10.57) rotate(30)" gradientUnits="userSpaceOnUse"><stop offset="0" stop-color="#f06eaa"/><stop offset="1" stop-color="#535fa8"/></linearGradient><linearGradient id="linear-gradient-8" x1="26.61" y1="1.25" x2="33.36" y2="4.19" xlink:href="#linear-gradient-5"/><linearGradient id="linear-gradient-9" x1="28.95" y1="4.01" x2="34.67" y2="6.5" xlink:href="#linear-gradient-5"/><linearGradient id="linear-gradient-10" x1="26.02" y1="-2.07" x2="33.39" y2="1.87" xlink:href="#linear-gradient-5"/><linearGradient id="linear-gradient-11" x1="30.76" y1="-0.96" x2="29.01" y2="0.21" gradientTransform="translate(-16.99 -10.57) rotate(30)" gradientUnits="userSpaceOnUse"><stop offset="0" stop-color="#fff" stop-opacity="0"/><stop offset="0.51" stop-color="#fff"/><stop offset="1" stop-color="#fff" stop-opacity="0"/></linearGradient><linearGradient id="linear-gradient-12" x1="28.1" y1="7.12" x2="29.76" y2="8.06" xlink:href="#linear-gradient-11"/><linearGradient id="linear-gradient-13" x1="8.11" y1="9.51" x2="10.06" y2="13.73" gradientTransform="matrix(1, 0, 0, 1, 0, 0)" xlink:href="#linear-gradient-11"/><linearGradient id="linear-gradient-14" x1="4.14" y1="4.73" x2="8.59" y2="6.66" gradientTransform="matrix(1, 0, 0, 1, 0, 0)" xlink:href="#linear-gradient-11"/><radialGradient id="radial-gradient" cx="80.1" cy="610.56" r="2.66" gradientTransform="matrix(0.6, 0.5, -0.1, 0.08, 20.63, -85.85)" gradientUnits="userSpaceOnUse"><stop offset="0.01" stop-color="#fff"/><stop offset="0.04" stop-color="#fff" stop-opacity="0.94"/><stop offset="0.12" stop-color="#fff" stop-opacity="0.72"/><stop offset="0.21" stop-color="#fff" stop-opacity="0.53"/><stop offset="0.31" stop-color="#fff" stop-opacity="0.37"/><stop offset="0.4" stop-color="#fff" stop-opacity="0.23"/><stop offset="0.5" stop-color="#fff" stop-opacity="0.13"/><stop offset="0.59" stop-color="#fff" stop-opacity="0.06"/><stop offset="0.69" stop-color="#fff" stop-opacity="0.01"/><stop offset="0.81" stop-color="#fff" stop-opacity="0"/></radialGradient><radialGradient id="radial-gradient-2" cx="116.46" cy="657.18" r="2.65" gradientTransform="matrix(0, 0.73, -0.14, -0.02, 101, -61.27)" xlink:href="#radial-gradient"/></defs><title>logo</title><g class="cls-1"><g id="Layer_1" data-name="Layer 1"><text class="cls-2" transform="translate(14.88 8.06) scale(0.97 1)"><tspan class="cls-3">P</tspan><tspan x="5.45" y="0">R</tspan><tspan class="cls-4" x="11" y="0">O</tspan><tspan class="cls-5" x="17.24" y="0">J</tspan><tspan class="cls-6" x="21.41" y="0">E</tspan><tspan class="cls-7" x="26.44" y="0">C</tspan><tspan class="cls-8" x="31.93" y="0">T MAN</tspan><tspan class="cls-9" x="57.97" y="0">A</tspan><tspan x="63.79" y="0">GEMENT </tspan><tspan class="cls-4" x="99.79" y="0">SY</tspan><tspan class="cls-10" x="109.62" y="0">S</tspan><tspan x="114.4" y="0">TEM</tspan></text><path class="cls-11" d="M3.75,3.38S7.44,4.54,9.07,6.69l-.47.53A30.53,30.53,0,0,0,3.75,3.38Z" transform="translate(-3 -2.52)"/><path class="cls-12" d="M10.36,14.46A15.77,15.77,0,0,0,7.05,9.84l1-.45S10.26,12.88,10.36,14.46Z" transform="translate(-3 -2.52)"/><path class="cls-13" d="M14.76,9.82,10,3A1.39,1.39,0,0,0,7.89,3L6.33,5.28a14,14,0,0,1,4.32,6.09h1.64a6,6,0,0,0-1.48-3.22A6.63,6.63,0,0,1,13,11.37h.74C14.64,11.37,15.24,10.51,14.76,9.82Z" transform="translate(-3 -2.52)"/><path class="cls-14" d="M5.62,6.3,4.79,7.49A6.24,6.24,0,0,1,6.42,9.34,12.84,12.84,0,0,0,4.58,7.8l-1.41,2c-.48.69.12,1.55,1.07,1.55h5.3A17.07,17.07,0,0,0,5.62,6.3Z" transform="translate(-3 -2.52)"/><path class="cls-15" d="M5.67,6.67,5,7.65A5.93,5.93,0,0,1,6.42,9.34a13.29,13.29,0,0,0-1.64-1.4l-1.38,2A.75.75,0,0,0,3.76,11h0a1.09,1.09,0,0,0,.48.1H9.13A17,17,0,0,0,5.67,6.67Z" transform="translate(-3 -2.52)"/><path class="cls-16" d="M5.09,7.07a18.66,18.66,0,0,1,3.42,4.3h1L6.2,7.09Z" transform="translate(-3 -2.52)"/><path class="cls-17" d="M5.62,6.3S10,9.41,10.36,14.46A15.48,15.48,0,0,0,5.09,7.07Z" transform="translate(-3 -2.52)"/><path class="cls-16" d="M6.74,4.69l-.41.59A14.14,14.14,0,0,1,9.64,9.15a21.43,21.43,0,0,1,2,2.22S11.4,8,6.74,4.69Z" transform="translate(-3 -2.52)"/><path class="cls-18" d="M10.65,11.37s-.78-3.69-6.9-8c0,0,6.54,2.83,7.87,8Z" transform="translate(-3 -2.52)"/><path class="cls-19" d="M11.12,11.34h.49c-1.33-5.14-7.86-8-7.86-8S9.9,6.58,11.12,11.34Z" transform="translate(-3 -2.52)"/><path class="cls-20" d="M5.62,6.3l-.27.38a13.64,13.64,0,0,1,5,7.78C10,9.41,5.62,6.3,5.62,6.3Z" transform="translate(-3 -2.52)"/><path class="cls-21" d="M9.81,3.14a.94.94,0,0,0-.36-.29,1.09,1.09,0,0,0-1.33.29L7,4.74l7.1,4.6Z" transform="translate(-3 -2.52)"/><path class="cls-22" d="M7.36,4.23s.48-.71.76-1.09a1.09,1.09,0,0,1,1.69,0c.55.69,1.44,2.08,1.44,2.08s-1.17-1.5-1.58-1.94A.88.88,0,0,0,8.32,3.2C7.93,3.6,7.36,4.23,7.36,4.23Z" transform="translate(-3 -2.52)"/><path class="cls-23" d="M4.25,8.71,3.4,9.93c-.24.35-.16,1.12.84,1.21H5.7A11.16,11.16,0,0,1,4.1,11c-.46-.12-.85-.5-.59-1S4.25,8.71,4.25,8.71Z" transform="translate(-3 -2.52)"/><path class="cls-24" d="M10.36,14.46a12.78,12.78,0,0,0-3-5.92A15.12,15.12,0,0,1,10.36,14.46Z" transform="translate(-3 -2.52)"/><path class="cls-25" d="M3.75,3.38A18.81,18.81,0,0,1,9.6,8.28,23.92,23.92,0,0,0,3.75,3.38Z" transform="translate(-3 -2.52)"/><path class="cls-26" d="M8.47,6.88c-.14.12-1-.37-1.86-1.11S5.13,4.35,5.28,4.22s1,.37,1.87,1.11S8.62,6.75,8.47,6.88Z" transform="translate(-3 -2.52)"/><ellipse class="cls-27" cx="9.18" cy="11.2" rx="0.37" ry="1.93" transform="translate(-6.98 2.64) rotate(-25.99)"/></g></g></svg>